<svg width="24" height="24" viewBox="0 0 24 24" fill="none" xmlns="http://www.w3.org/2000/svg">
<g clip-path="url(#clip0_101_1199)">
<path fill-rule="evenodd" clip-rule="evenodd" d="M15 11.4998C15 11.765 15.1054 12.0194 15.2929 12.2069C15.4804 12.3944 15.7348 12.4998 16 12.4998C16.2652 12.4998 16.5196 12.3944 16.7071 12.2069C16.8946 12.0194 17 11.765 17 11.4998V8.99978H18.793C20.129 8.99978 20.798 7.38378 19.853 6.43978L15.06 1.64378C14.9207 1.50439 14.7553 1.39382 14.5732 1.31837C14.3912 1.24293 14.1961 1.2041 13.999 1.2041C13.8019 1.2041 13.6068 1.24293 13.4248 1.31837C13.2427 1.39382 13.0773 1.50439 12.938 1.64378L8.147 6.43978C7.2 7.38378 7.87 8.99978 9.206 8.99978H11V15.9998C11 16.265 11.1054 16.5194 11.2929 16.7069C11.4804 16.8944 11.7348 16.9998 12 16.9998H13.587L10 20.5858L6.414 16.9998H8C8.26522 16.9998 8.51957 16.8944 8.70711 16.7069C8.89465 16.5194 9 16.265 9 15.9998V12.4998C9 12.2346 8.89465 11.9802 8.70711 11.7927C8.51957 11.6051 8.26522 11.4998 8 11.4998C7.73479 11.4998 7.48043 11.6051 7.2929 11.7927C7.10536 11.9802 7 12.2346 7 12.4998V14.9998H5.207C3.871 14.9998 3.201 16.6148 4.147 17.5598L8.939 22.3538C9.0783 22.4932 9.2437 22.6037 9.42576 22.6792C9.60781 22.7546 9.80294 22.7935 10 22.7935C10.1971 22.7935 10.3922 22.7546 10.5743 22.6792C10.7563 22.6037 10.9217 22.4932 11.061 22.3538L15.854 17.5598C16.799 16.6148 16.129 14.9998 14.793 14.9998H13V7.99978C13 7.73457 12.8946 7.48021 12.7071 7.29268C12.5196 7.10514 12.2652 6.99978 12 6.99978H10.413L14 3.41278L17.586 6.99978H16C15.7348 6.99978 15.4804 7.10514 15.2929 7.29268C15.1054 7.48021 15 7.73457 15 7.99978V11.4998Z" fill="#FAFAFA"/>
</g>
<defs>
<clipPath id="clip0_101_1199">
<rect width="24" height="24" fill="white"/>
</clipPath>
</defs>
</svg>
