<svg width="17" height="16" viewBox="0 0 17 16" fill="none" xmlns="http://www.w3.org/2000/svg">
<path d="M1.84025 0.5H2.67358C3.55192 0.5 4.27192 1.18 4.33608 2.04167L4.34025 2.16667V13.8333C4.34017 14.2537 4.18127 14.6585 3.89539 14.9666C3.6095 15.2747 3.21774 15.4635 2.79858 15.495L2.67358 15.5H1.84025C1.41977 15.5001 1.01478 15.3413 0.706461 15.0554C0.398143 14.7695 0.209287 14.3776 0.177751 13.9583L0.173584 13.8333V2.16667C0.173584 1.28833 0.853584 0.568333 1.71525 0.504167L1.84025 0.5ZM6.84025 0.5H7.67358C8.55192 0.5 9.27192 1.18 9.33608 2.04167L9.34025 2.16667V13.8333C9.34017 14.2537 9.18127 14.6585 8.89539 14.9666C8.6095 15.2747 8.21774 15.4635 7.79858 15.495L7.67358 15.5H6.84025C6.41977 15.5001 6.01478 15.3413 5.70646 15.0554C5.39814 14.7695 5.20929 14.3776 5.17775 13.9583L5.17358 13.8333V2.16667C5.17358 1.28833 5.85358 0.568333 6.71525 0.504167L6.84025 0.5ZM12.6519 2.16667C13.3519 2.16667 13.9919 2.60917 14.2269 3.28833L14.2661 3.41917L16.7786 13.2075C16.8829 13.6146 16.8296 14.0461 16.6294 14.4156C16.4291 14.7851 16.0967 15.0652 15.6986 15.2L15.5786 15.2358L14.7711 15.4425C14.3657 15.5464 13.9361 15.4941 13.5676 15.2958C13.1991 15.0976 12.9186 14.768 12.7819 14.3725L12.7428 14.2433L10.2294 4.45583C10.1249 4.0484 10.1783 3.61652 10.3789 3.24682C10.5795 2.87712 10.9125 2.59695 11.3111 2.4625L11.4303 2.42667L12.2369 2.22C12.3758 2.18444 12.5141 2.16667 12.6519 2.16667ZM2.67358 1.75H1.84025C1.74273 1.74997 1.64829 1.78414 1.57337 1.84657C1.49845 1.90901 1.4478 1.99574 1.43025 2.09167L1.42358 2.16667V13.8333C1.42358 14.0367 1.57108 14.2083 1.76525 14.2433L1.84025 14.25H2.67358C2.87775 14.25 3.04858 14.1017 3.08358 13.9083L3.09025 13.8333V2.16667C3.09028 2.06915 3.05611 1.9747 2.99368 1.89978C2.93124 1.82487 2.84451 1.77422 2.74858 1.75667L2.67358 1.75ZM7.67358 1.75H6.84025C6.74273 1.74997 6.64829 1.78414 6.57337 1.84657C6.49845 1.90901 6.4478 1.99574 6.43025 2.09167L6.42358 2.16667V13.8333C6.42358 14.0367 6.57108 14.2083 6.76525 14.2433L6.84025 14.25H7.67358C7.87775 14.25 8.04858 14.1017 8.08358 13.9083L8.09025 13.8333V2.16667C8.09028 2.06915 8.05611 1.9747 7.99368 1.89978C7.93124 1.82487 7.84451 1.77422 7.74858 1.75667L7.67358 1.75ZM12.6528 3.41667L12.6003 3.42L12.5478 3.43083L11.7411 3.63667C11.6478 3.66041 11.5656 3.71572 11.5085 3.7932C11.4514 3.87067 11.4229 3.96554 11.4278 4.06167L11.4403 4.145L13.9536 13.9325C13.9766 14.0218 14.0287 14.1009 14.1015 14.1575C14.1743 14.214 14.2639 14.2448 14.3561 14.245L14.4086 14.2425L14.4603 14.2325L15.2686 14.0242C15.3629 13.9999 15.4457 13.9433 15.5026 13.8643C15.5596 13.7853 15.587 13.6888 15.5803 13.5917L15.5678 13.5183L13.0553 3.72917C13.0322 3.63988 12.9802 3.56077 12.9073 3.50422C12.8345 3.44766 12.745 3.41687 12.6528 3.41667Z" fill="#141925"/>
</svg>
