<svg width="26" height="24" viewBox="0 0 26 24" fill="none" xmlns="http://www.w3.org/2000/svg">
<path d="M3 0.75H4.25C5.5675 0.75 6.6475 1.77 6.74375 3.0625L6.75 3.25V20.75C6.74988 21.3805 6.51154 21.9877 6.0827 22.4499C5.65387 22.9121 5.06623 23.1952 4.4375 23.2425L4.25 23.25H3C2.36928 23.2502 1.76179 23.012 1.29931 22.5831C0.836838 22.1543 0.553554 21.5664 0.50625 20.9375L0.5 20.75V3.25C0.5 1.9325 1.52 0.8525 2.8125 0.75625L3 0.75ZM10.5 0.75H11.75C13.0675 0.75 14.1475 1.77 14.2437 3.0625L14.25 3.25V20.75C14.2499 21.3805 14.0115 21.9877 13.5827 22.4499C13.1539 22.9121 12.5662 23.1952 11.9375 23.2425L11.75 23.25H10.5C9.86928 23.2502 9.26179 23.012 8.79931 22.5831C8.33684 22.1543 8.05355 21.5664 8.00625 20.9375L8 20.75V3.25C8 1.9325 9.02 0.8525 10.3125 0.75625L10.5 0.75ZM19.2175 3.25C20.2675 3.25 21.2275 3.91375 21.58 4.9325L21.6387 5.12875L25.4075 19.8113C25.564 20.4219 25.4841 21.0691 25.1837 21.6234C24.8833 22.1776 24.3846 22.5978 23.7875 22.8L23.6075 22.8538L22.3962 23.1637C21.7882 23.3196 21.1438 23.2411 20.591 22.9438C20.0382 22.6464 19.6175 22.152 19.4125 21.5588L19.3538 21.365L15.5838 6.68375C15.427 6.0726 15.5071 5.42478 15.808 4.87023C16.1089 4.31568 16.6084 3.89542 17.2062 3.69375L17.385 3.64L18.595 3.33C18.8033 3.27667 19.0108 3.25 19.2175 3.25ZM4.25 2.625H3C2.85372 2.62495 2.71205 2.67621 2.59968 2.76986C2.4873 2.86351 2.41133 2.99361 2.385 3.1375L2.375 3.25V20.75C2.375 21.055 2.59625 21.3125 2.8875 21.365L3 21.375H4.25C4.55625 21.375 4.8125 21.1525 4.865 20.8625L4.875 20.75V3.25C4.87505 3.10372 4.82379 2.96205 4.73014 2.84968C4.63649 2.7373 4.50639 2.66133 4.3625 2.635L4.25 2.625ZM11.75 2.625H10.5C10.3537 2.62495 10.2121 2.67621 10.0997 2.76986C9.9873 2.86351 9.91133 2.99361 9.885 3.1375L9.875 3.25V20.75C9.875 21.055 10.0962 21.3125 10.3875 21.365L10.5 21.375H11.75C12.0562 21.375 12.3125 21.1525 12.365 20.8625L12.375 20.75V3.25C12.375 3.10372 12.3238 2.96205 12.2301 2.84968C12.1365 2.7373 12.0064 2.66133 11.8625 2.635L11.75 2.625ZM19.2188 5.125L19.14 5.13L19.0613 5.14625L17.8512 5.455C17.7113 5.49062 17.5881 5.57358 17.5024 5.6898C17.4167 5.80601 17.3739 5.9483 17.3813 6.0925L17.4 6.2175L21.17 20.8988C21.2046 21.0327 21.2826 21.1514 21.3919 21.2362C21.5011 21.321 21.6354 21.3672 21.7737 21.3675L21.8525 21.3637L21.93 21.3488L23.1425 21.0363C23.284 20.9998 23.4082 20.9149 23.4936 20.7964C23.579 20.6779 23.6202 20.5332 23.61 20.3875L23.5912 20.2775L19.8225 5.59375C19.7879 5.45982 19.7099 5.34115 19.6006 5.25632C19.4914 5.1715 19.3571 5.12531 19.2188 5.125Z" fill="#FAFAFA"/>
</svg>
