<svg width="32" height="25" viewBox="0 0 32 25" fill="none" xmlns="http://www.w3.org/2000/svg">
<g id="logos:discord-icon" clip-path="url(#clip0_222_2164)">
<path id="Vector" d="M27.1065 2.07452C25.0081 1.09265 22.788 0.395001 20.5051 0C20.2208 0.514098 19.8885 1.20556 19.6594 1.75566C17.1981 1.38551 14.7593 1.38551 12.3432 1.75566C12.1142 1.20569 11.7745 0.514098 11.4875 0C9.20235 0.395173 6.98042 1.0946 4.88096 2.07964C0.703181 8.39293 -0.429384 14.5492 0.136836 20.6184C2.90781 22.6877 5.59317 23.9447 8.23328 24.7673C8.88946 23.865 9.46947 22.9098 9.96732 21.9113C9.0194 21.5505 8.10557 21.1057 7.23671 20.5824C7.46534 20.4129 7.68861 20.2363 7.90618 20.0528C13.1711 22.5154 18.8918 22.5154 24.0941 20.0528C24.3126 20.2351 24.5358 20.4117 24.7634 20.5824C23.8932 21.1071 22.9776 21.5528 22.0278 21.914C22.5285 22.9164 23.1075 23.8726 23.7618 24.7698C26.4045 23.9474 29.0923 22.6903 31.8633 20.6184C32.5278 13.5828 30.7283 7.48298 27.1065 2.07452ZM10.6847 16.886C9.10411 16.886 7.80793 15.4104 7.80793 13.6137C7.80793 11.8169 9.07649 10.3388 10.6847 10.3388C12.2928 10.3388 13.589 11.8143 13.5614 13.6137C13.5639 15.4104 12.2929 16.886 10.6847 16.886ZM21.3155 16.886C19.7349 16.886 18.4389 15.4104 18.4389 13.6137C18.4389 11.8169 19.7073 10.3388 21.3155 10.3388C22.9238 10.3388 24.2198 11.8143 24.1922 13.6137C24.1922 15.4104 22.9238 16.886 21.3155 16.886Z" fill="#5865F2"/>
</g>
<defs>
<clipPath id="clip0_222_2164">
<rect width="32" height="24.8737" fill="white"/>
</clipPath>
</defs>
</svg>
