<svg width="32" height="33" viewBox="0 0 32 33" fill="none" xmlns="http://www.w3.org/2000/svg">
<g id="icon-park-outline:telegram">
<path id="Vector" d="M27.6133 5.30953C27.6133 5.30953 30.2033 4.29953 29.9866 6.75219C29.9153 7.76219 29.268 11.2975 28.764 15.1209L27.0373 26.4475C27.0373 26.4475 26.8933 28.1069 25.5979 28.3955C24.3033 28.6835 22.3606 27.3855 22.0006 27.0969C21.7126 26.8802 16.6046 23.6335 14.806 22.0469C14.302 21.6135 13.726 20.7482 14.878 19.7382L22.4326 12.5235C23.2959 11.6569 24.1593 9.63686 20.562 12.0902L10.4886 18.9435C10.4886 18.9435 9.33729 19.6655 7.17929 19.0162L2.50195 17.5729C2.50195 17.5729 0.775285 16.4909 3.72529 15.4089C10.9206 12.0182 19.7706 8.55553 27.6126 5.30886" fill="url(#paint0_linear_222_2299)"/>
</g>
<defs>
<linearGradient id="paint0_linear_222_2299" x1="1401.99" y1="5.10352" x2="1401.99" y2="2338.45" gradientUnits="userSpaceOnUse">
<stop stop-color="#2AABEE"/>
<stop offset="1" stop-color="#229ED9"/>
</linearGradient>
</defs>
</svg>
