<svg width="32" height="27" viewBox="0 0 32 27" fill="none" xmlns="http://www.w3.org/2000/svg">
<g id="logos:twitter" clip-path="url(#clip0_222_2129)">
<path id="Vector" d="M31.9983 3.55672C30.8002 4.08758 29.5293 4.43599 28.228 4.59036C29.5835 3.77794 30.6242 2.49144 31.1143 0.958594C29.8257 1.72321 28.4159 2.26196 26.9458 2.55156C25.7483 1.27581 24.0424 0.478516 22.1542 0.478516C18.5288 0.478516 15.5894 3.41773 15.5894 7.04287C15.5894 7.55745 15.6476 8.0584 15.7594 8.53898C10.3037 8.26513 5.46668 5.65176 2.22887 1.68015C1.66393 2.64968 1.34021 3.77744 1.34021 4.98033C1.34021 7.25785 2.49922 9.26703 4.26055 10.4443C3.21808 10.4117 2.19854 10.1301 1.28709 9.62312C1.28676 9.65062 1.28663 9.67816 1.28671 9.70574C1.28671 12.8863 3.54949 15.5395 6.55245 16.1426C5.58577 16.4055 4.57181 16.4439 3.58799 16.2551C4.42328 18.8631 6.84767 20.7609 9.72014 20.814C7.47349 22.5746 4.64289 23.6241 1.56744 23.6241C1.03749 23.6241 0.51504 23.593 0.00146484 23.5324C2.90656 25.395 6.35709 26.4817 10.0642 26.4817C22.1389 26.4817 28.7417 16.4788 28.7417 7.80417C28.7417 7.51945 28.7353 7.23636 28.7227 6.95488C30.0077 6.02572 31.117 4.87502 31.9983 3.55672Z" fill="#55ACEE"/>
</g>
<defs>
<clipPath id="clip0_222_2129">
<rect width="32" height="26.1224" fill="white" transform="translate(0 0.375977)"/>
</clipPath>
</defs>
</svg>
